<?xml version="1.0" encoding="UTF-8"?>
<svg id="Layer_1" xmlns="http://www.w3.org/2000/svg" viewBox="0 0 140 140.28957615292893">
  <defs>
    <style>
      .cls-1{fill:#00e000;}
      .cls-2{fill:#e0004f;}
      .cls-3{fill:#16b8e0;}
    </style>
  </defs>
  <path d="m46.855361168423769,31.933726193945404c-.145908222595608.187648746003106-.282513571935851.381050584684999-.453392664847343.551807271356665-.190953714136413.191198526594235-.405409423852689.348000903391949-.617906633946404.507985842101334l6.110029227445921,6.204526834695571-19.248460572627664,19.247424942026555c-.677744197997526.677707733120769-.677775240106712,1.776518171525822-.00006933457189,2.454264196992881l14.087260018659435,14.088093979113182c.677721381947777.67776150280406,1.776562385657598.677777765064093,2.45430382833365.000036322391679l18.937329451800906-19.005478309896716c.671975443670817-.674393649431295.675187311557238-1.764245758946345.007198473162134-2.442588373745821l-21.276291793408745-21.606072705035331Z"/>
  <path class="cls-2" d="m74.542260062871719,110.728121542741064c-.041927565300284-.153603790640773-.082287744986388-.307697389278474-.14067285928104-.453660175022378-.048980800587742-.121374423852103-.112068071743124-.234715996411978-.172020571666508-.350016800985031-.054858496641828-.107072030084964-.107757761277753-.215221637772629-.17162872524932-.316709856590023-.083071437788021-.130680775957444-.17750642131432-.253034815825231-.274292483274621-.373331662067358-.055642189472564-.069846621623583-.110108839711756-.140281012871128-.170453186034138-.206503055262147-.119904999835853-.130974660769425-.248822466979618-.253034815825231-.384793169403565-.367845812397718-.046629722157377-.040066294877761-.093651290721027-.079838704954454-.142632091308769-.117749844615901-.157522254678042-.121668308649532-.32288143745609-.233638418783812-.497253087538411-.332285751166637-.032523251597013-.018612704217958-.065438349585747-.03585394602851-.098745293980755-.053584995843266-.193180277510692-.102467834818526-.393805636711477-.193180277507054-.603835309619171-.26498613116928-.016849395404279-.005779734467069-.034482483610191-.010188006515818-.051331879014469-.015869779381319-.225703529096791-.074058970487386-.458460293477401-.132150199988246-.69944583236429-.167318414802139-.19827428077042-.028996633951465-.39654856154084-.060736192725017-.603051616810262-.060736192725017-.206894901672058,0-.405169182442478.031739558773552-.603835309622809.060834154319309-.240593692469702.035168214821169-.47335045685395.09335740591996-.699053985954379.167318414805777-.017241241803276.005681772865501-.034874330012826.010188006523094-.051723725417105.01606570259537-.209245980102423.071707892053382-.409479492896935.162028488335636-.602267924001353.264202438356733-.034090637211193.018220857815322-.068181274411472.035951907630078-.101488218810118.054956458247034-.173196110874414.098157524382259-.337771600836277.209637826515973-.49490200911896.330718365563371-.049764493396651.038694832459441-.097569754765573.079152973743476-.145375016138132.120002961430146-.134795163205126.114027303770854-.26292893754362.235401727612043-.382050244570564.365396772369422-.061128039127652.067299620004633-.116770228592941.138909550463723-.173587957269774.210127634516539-.095610522745119.119121307026944-.188869967056235.240005922871205-.271157712042623.36941319800826-.064262810370565.102663758036215-.118337614214397.212086866544269-.173979803683324.320530359036638-.059168807103561.114419150173489-.121864231852669.226683145112474-.170453186037776.347175914546824-.058776960700925.14684444015802-.099528986786027.301819693213474-.141456552082673.456403099862655-.026253709122102.096002369151392-.061911731947475.188086274247325-.081112205778481.286733606626512-.050940032604558.260381935913756-.081112205771205.528208953517606-.081112205771205.803481052804273,0,2.304840552355017,1.868715503947897,4.173360133092501,4.173556056299276,4.173360133092501,2.304840552358655,0,4.173164209893002-1.868519580737484,4.173164209893002-4.173360133092501,0-.275076176087168-.030172173159372-.54290319368738-.081112205767568-.803089206397999-.01959232023728-.099724909996439-.055250343062653-.192690469506488-.081895898580115-.28967245466265Z"/>
  <path class="cls-1" d="m40.053002321006716,31.925280164281503c.074912610929459.050676177979767.155700720755704.08788767099395.233551081135374.133177974985301.146397847503977.08568435890993.29377494482469.16941021817911.44751716594692.235631986990484.09792498160823.042352554548415.199766962490685.073321329982718.300140068633482.10759507354669.138563848973718.047493616079009.278106947760534.09192707648981.42009817109647.124364726645581.113103353756742.025582901442249.227185957330221.043454210586788.341758185815706.059611832548399.131709100263834.018728152732365.264397450340766.031948025254678.397575425333343.038068336598371.123385476821568.005508280217327.246281328738405.006732342491887.369666805563611.001346468507109.123385476832482-.005263467766781.246281328745681-.019217777648009.369177180662518-.03537539960962.129750600637635-.017381684239808.259501201264356-.035252993380709.387782927173248-.064875300318818.111634479031636-.025582901438611.220331208616699-.062794394452794.32951756311013-.097557762925135.13366759989367-.042719773227873.267824824699346-.082501797005534.397575425326067-.138931067656813.096456106886762-.041862929636409.186547089964733-.098292200287688.280555072309653-.14762190977126.13366759989367-.070995611673425.270272949237551-.135748505759693.397575425333343-.222289708257449v.000122406225273c.214455709716276-.145663410137786.420587796004838-.308830910744291.610562260320876-.498805375060329.175775341987901-.175530529530079.323152439315891-.36758589971214.460737038469233-.564170300291153.115551478302223-.164391562873789.208580210826767-.338820436361857.297202319179632-.514595778353396.026929369949357-.053246708750521.059244613879855-.104412511645933.083725859276456-.158516063973366.072464486391254-.160474563610478.127302476088516-.326212594991375.178713091434474-.492807469949184.023991620495508-.077483141700213.049941740620852-.15423184602696.069037112036312-.232571831314999.03819074283092-.153987033583689.062671988227521-.310177379247762.083236234368087-.466734943591291.012240622694662-.098047387837141.023012370671495-.196217181895918.028398244670825-.294876600873977.007833998526621-.142725660691212.00881324833972-.285451321389701.001958499633474-.428176982077275-.005385873992054-.117509977932059-.018116121609637-.2344079247232-.033294493750873-.351183465292706-.016647246877255-.126935257409059-.035252993384347-.253503296142298-.063651238047896-.378724866372067-.030356744297023-.135014068389864-.073443736207992-.266967981107882-.117999602840428-.398921893822262-.035742618289078-.106248605050496-.067568237311207-.213476459906815-.111634479027998-.317154534182919-.067078612402838-.155211095854611-.151294096584024-.303812255442608-.237468080405961-.451556571453693-.044555866628798-.075891860735283-.080298484917876-.155333502065332-.130240225531452-.228899644505873-.147377097324352-.219107146342139-.314828815877263-.429278638119285-.508720279463887-.623170101705909-.500396656010707-.500519062239619-1.101166418178764-.828445344406646-1.733761799368949-1.021479964405444-.352529933788901-.107472667310503-.712404241196054-.175408123293892-1.0776644225989-.187526339777833-.046514366262272-.001591280950379-.092539107623452-.013342278743949-.139543098790455-.013342278743949-1.067871924446081,0-2.13574384887761.407490329718712-2.95096932076558,1.222348582927225-1.629471693962842,1.629838912645937-1.629471693962842,4.272344541335769,0,5.902061047760071.192422588865156.192544995086791.401492424593016.358405432685686.618885883763141.505537717552215Z"/>
  <path class="cls-3" d="m121.683266989655749,46.753570504302843c-.75010535911133-1.10997966652576-2.019702745670656-1.83988799817962-3.460179225126922-1.840010404412169-1.15257703352836.000122406232549-2.195967712566926.467102162274387-2.951458945670311,1.222348582930863-.755001608202292.7552464206492-1.222103770476679,1.798637099687767-1.222103770476679,2.951091726990853,0,.376888772963866.064140862956265.7363958616952.15961772002629,1.082438265450037.018605746503454.068914705803763.041128492273856.135748505759693.063161613139528.203194336834713.11016560430653.331108844064147.248239828371879.650589096563635.431849168886401.940447042117739.272231448874663.429523450584384.621823633213353.800291912204557,1.027722681981686,1.104471386319346.147377097320714.110532822989626.30552594261826.206499304971658.466612537369656.297202319179632.053858739880525.030111931842839.107227854852681.060468676150776.162555469465588.088254889680684.138563848977356.070628392979415.281534322122752.132688350069657.427932169626729.18789355845729.110655229211261.040638867372763.224737832792016.074055767337995.339310061270226.105391761455394.111634479038912.031335994117399.222289708250173.065242518994637.337841186552396.087153233631398.245302078925306.045045491540805.495500406934298.075891860742558.754022358381917.076014266967832.000979249816737,0,.001958499626198.000244812457822.002937749446573.000244812457822,1.440476479456265-.000122406228911,2.710073866015591-.72990833165386,3.460179225126922-1.840010404415807.449965290499676-.666134687387967.712893866111699-1.468997130348725.712893866111699-2.333307499269722s-.262928575612023-1.667295218107029-.712893866111699-2.333429905509547Z"/>
  <path d="m113.595153133725034,52.359775701383114l-5.987133375536359,5.641335784232069-14.254805838772882-14.254918542810628c-.677726473346411-.677731831710844-1.776543205556663-.677734003616933-2.454272358092567-.000004851088306l-35.810893455131009,35.810893455141922c-.677727258065715.677727258065715-.677727258065715,1.776540248953097,0,2.454267507018812l14.689592757094942,14.689592757094942v8.705432574231963c.251177577825729-.027051776163717.495990031846304-.076259079425654.754511983290286-.076259079425654.258032326539251,0,.502355155651458.049207303261937.753532733477186.076136673204019v-8.96383211945431l37.14882102291449-37.148943429143401,6.198651335798786-5.840490715570922c-.390231051711453-.321316345900414-.745209110034921-.680456215948652-1.038004805042874-1.093210013430507Z"/>
</svg>
